<svg width="624" height="624" xmlns="http://www.w3.org/2000/svg" xmlns:xlink="http://www.w3.org/1999/xlink" xml:space="preserve" overflow="hidden"><g><path d="M491.985 144.788C503.003 131.527 501.247 111.832 487.988 100.815 474.728 89.7975 455.033 91.5525 444.015 104.812L312 263.25 179.985 104.812C168.968 91.5525 149.273 89.7975 136.012 100.815 122.753 111.832 120.998 131.527 132.015 144.788L271.342 312 132.015 479.213C120.998 492.473 122.753 512.167 136.012 523.185 149.273 534.203 168.968 532.448 179.985 519.188L312 360.75 444.015 519.188C455.033 532.448 474.728 534.203 487.988 523.185 501.247 512.167 503.003 492.473 491.985 479.213L352.658 312 491.985 144.788Z" fill="#FFFFFF"/></g></svg>